<svg width="120" height="112" viewBox="0 0 120 112" fill="none" xmlns="http://www.w3.org/2000/svg">
<ellipse cx="59" cy="56" rx="54" ry="56" fill="#928D8D"/>
<ellipse rx="48.6484" ry="48.433" transform="matrix(0.999508 -0.0313541 0.0235377 0.999723 58.9071 55.7093)" fill="#352922"/>
<path d="M11.2944 46.2049C12.4975 46.193 13.631 46.2873 14.695 46.4877C15.759 46.6881 16.6908 46.9719 17.4905 47.339C18.2901 47.7062 18.9223 48.1531 19.3872 48.6798C19.852 49.1986 20.0867 49.7745 20.0914 50.4072L20.1605 59.7351C20.1652 60.3679 19.9391 60.9522 19.4821 61.488C19.0251 62.016 18.3995 62.4714 17.6055 62.8542C16.8114 63.2371 15.8839 63.5392 14.8231 63.7607C13.7622 63.9821 12.6302 64.0988 11.4271 64.1106C10.7553 64.1173 10.0676 64.1006 9.36421 64.0607C8.66071 64.013 7.97666 63.9533 7.31205 63.8817C6.65519 63.8023 6.03731 63.7107 5.45841 63.6071C4.8795 63.5034 4.38256 63.3911 3.96759 63.2702L3.84841 47.1925C4.26152 47.0634 4.75672 46.9414 5.33401 46.8263C5.9113 46.7112 6.52776 46.6113 7.1834 46.5267C7.84679 46.4343 8.52986 46.3611 9.2326 46.3073C9.93529 46.2456 10.6226 46.2115 11.2944 46.2049ZM11.3609 48.8528C10.65 48.8598 10.033 48.8893 9.50995 48.9414C8.98682 48.9856 8.53803 49.0447 8.16357 49.1187C7.78905 49.1849 7.47709 49.2583 7.22768 49.3389C6.98603 49.4116 6.78728 49.4761 6.63144 49.5323L6.71553 60.8758C6.87224 60.9367 7.07194 61.0012 7.31464 61.0691C7.56515 61.1369 7.87815 61.2041 8.25365 61.2708C8.6291 61.3295 9.0787 61.3798 9.60246 61.4215C10.1262 61.4554 10.7435 61.4688 11.4544 61.4618C12.3293 61.4532 13.1139 61.3751 13.8082 61.2276C14.5102 61.08 15.0986 60.8867 15.5734 60.6477C16.056 60.4085 16.4251 60.1353 16.6807 59.8281C16.9362 59.513 17.0626 59.1876 17.0602 58.8516L17.0046 51.3518C17.0021 51.0159 16.8708 50.6969 16.6107 50.3948C16.3506 50.0848 15.9775 49.815 15.4914 49.5855C15.0132 49.3558 14.4219 49.1741 13.7178 49.0404C13.0215 48.9067 12.2359 48.8441 11.3609 48.8528ZM32.5883 50.4948C33.5804 50.485 34.5064 50.5071 35.3662 50.5611C36.2259 50.6073 36.9841 50.6584 37.6408 50.7144C38.3992 50.7929 39.0991 50.8758 39.7404 50.9632L39.7553 52.9788C39.4534 53.349 39.0619 53.7669 38.581 54.2326C38.1078 54.6904 37.5762 55.1762 36.9863 55.6898C36.4041 56.2034 35.7791 56.7331 35.1113 57.2788C34.4434 57.8166 33.7559 58.3469 33.0488 58.8695C32.3495 59.3921 31.6462 59.899 30.9389 60.3904C30.2394 60.8817 29.567 61.3298 28.9215 61.7346C29.1717 61.7556 29.453 61.7723 29.7656 61.7849C30.086 61.7895 30.3829 61.7905 30.6563 61.7878C31.211 61.7823 31.7851 61.7649 32.3786 61.7356C32.9722 61.7063 33.5579 61.6693 34.1357 61.6245C34.7134 61.5719 35.2755 61.5156 35.8219 61.4555C36.3683 61.3876 36.8718 61.3201 37.3322 61.2531C37.3618 61.034 37.3914 60.8111 37.421 60.5842C37.4506 60.3574 37.4763 60.1462 37.4983 59.9506C37.5203 59.7473 37.5384 59.5635 37.5528 59.3993C37.5672 59.2272 37.574 59.0865 37.5732 58.9772L40.2683 58.9506C40.269 59.0443 40.2623 59.1889 40.2481 59.3844C40.2417 59.5798 40.2278 59.8065 40.2063 60.0645C40.1848 60.3225 40.1595 60.6001 40.1304 60.8973C40.1092 61.1944 40.0801 61.4877 40.0432 61.7771C40.0141 62.0665 39.981 62.3442 39.9439 62.6102C39.9067 62.8684 39.8693 63.0875 39.8316 63.2676C39.2307 63.3673 38.6103 63.4554 37.9702 63.5321C37.3379 63.6008 36.7094 63.6578 36.0847 63.703C35.46 63.7483 34.8548 63.7855 34.2691 63.8147C33.6833 63.8361 33.1482 63.8492 32.6639 63.854C31.6795 63.8637 30.7575 63.8455 29.8978 63.7993C29.038 63.7531 28.2798 63.702 27.6231 63.646C26.857 63.5754 26.1532 63.4964 25.512 63.409L25.4951 61.1356C26.4908 60.5476 27.5095 59.9125 28.5514 59.2303C29.5932 58.5482 30.6154 57.8466 31.6179 57.1257C32.6203 56.3971 33.5797 55.6571 34.496 54.9058C35.4123 54.1545 36.2428 53.4119 36.9874 52.678C36.1664 52.5923 35.2911 52.5541 34.3615 52.5633C33.8302 52.5685 33.2874 52.5856 32.7329 52.6145C32.1862 52.6434 31.6435 52.68 31.1048 52.7244C30.566 52.7687 30.043 52.8208 29.5356 52.8805C29.036 52.9401 28.5677 53.0033 28.1307 53.0702C28.0933 53.2971 28.0599 53.5279 28.0304 53.7626C28.0008 53.9895 27.9712 54.2085 27.9415 54.4197C27.9196 54.6309 27.9015 54.8264 27.8872 55.0062C27.8729 55.1783 27.8661 55.3229 27.867 55.4401L25.1953 55.4664C25.1942 55.3258 25.2041 55.0718 25.2248 54.7044C25.2533 54.3369 25.2894 53.9342 25.333 53.4962C25.3766 53.0505 25.4202 52.6086 25.4638 52.1707C25.5152 51.7326 25.5634 51.3767 25.6082 51.1028C26.209 50.9953 26.8217 50.9072 27.4462 50.8385C28.0706 50.7621 28.6835 50.7013 29.2847 50.6563C29.8859 50.6035 30.4638 50.5665 31.0183 50.5454C31.5806 50.5164 32.1039 50.4996 32.5883 50.4948ZM53.7785 50.2855C54.1769 50.2815 54.6575 50.2963 55.2203 50.3298C55.783 50.3633 56.3655 50.4279 56.9678 50.5235C57.5779 50.6112 58.1804 50.742 58.7755 50.9158C59.3705 51.0818 59.9033 51.2992 60.3741 51.568C60.8527 51.8368 61.2379 52.165 61.5299 52.5528C61.8296 52.9326 61.9814 53.3843 61.9852 53.9077L62.0146 57.8685L48.5856 58.0012L48.6078 61.0011C49.554 61.1246 50.4649 61.2093 51.3402 61.2554C52.2155 61.2936 53.0555 61.3087 53.8601 61.3008C55.0867 61.2887 56.1956 61.2309 57.1871 61.1273C58.1863 61.0237 59.0488 60.9097 59.7744 60.7853C60.6094 60.6443 61.3621 60.4845 62.0327 60.306L62.0519 62.9075C60.5694 63.1565 59.1371 63.3386 57.7551 63.4538C56.3809 63.569 55.0884 63.6325 53.8775 63.6445C52.6588 63.6565 51.5532 63.6362 50.5606 63.5835C49.5679 63.523 48.7158 63.4533 48.0043 63.3744C47.1755 63.2888 46.4286 63.1868 45.7637 63.0683L45.697 54.0686C45.6931 53.5452 45.8186 53.0908 46.0736 52.7054C46.3285 52.3123 46.6698 51.9769 47.0974 51.6992C47.525 51.4215 48.0156 51.194 48.5689 51.0166C49.1301 50.8314 49.7111 50.6889 50.3119 50.5893C50.9127 50.4818 51.5098 50.4055 52.1032 50.3606C52.7045 50.3156 53.2629 50.2906 53.7785 50.2855ZM48.5717 56.1262L59.0946 56.0223L59.0845 54.663C59.0821 54.3427 59.002 54.07 58.8441 53.845C58.6861 53.6122 58.4737 53.4189 58.2069 53.2653C57.948 53.1116 57.6424 52.9896 57.2901 52.8993C56.9457 52.8012 56.5857 52.7305 56.2104 52.6873C55.835 52.6364 55.4559 52.605 55.073 52.5931C54.6979 52.5812 54.3424 52.5769 54.0064 52.5802C53.6549 52.5837 53.2761 52.5952 52.87 52.6149C52.4717 52.6344 52.0696 52.6736 51.6638 52.7323C51.2579 52.791 50.8679 52.8729 50.4937 52.9782C50.1194 53.0756 49.7883 53.2078 49.5005 53.3747C49.2126 53.5338 48.9836 53.7314 48.8135 53.9675C48.6433 54.1957 48.5594 54.47 48.5618 54.7903L48.5717 56.1262ZM68.1291 53.8236C68.096 53.5739 68.0203 53.3637 67.9018 53.193C67.7912 53.0222 67.669 52.8828 67.5354 52.7747C67.386 52.6434 67.2211 52.5356 67.0408 52.4515L68.3362 50.1417C68.626 50.2404 68.9161 50.3743 69.2064 50.5433C69.4497 50.6893 69.705 50.8782 69.9723 51.11C70.2475 51.3338 70.4878 51.6127 70.6934 51.9466C71.0822 51.6928 71.4788 51.4545 71.8835 51.2317C72.2958 51.0011 72.724 50.8015 73.1681 50.6331C73.62 50.4645 74.0917 50.3309 74.5831 50.2323C75.0824 50.1258 75.6171 50.0698 76.1874 50.0641C77.3905 50.0523 78.4224 50.1436 79.2833 50.3383C80.1519 50.525 80.8611 50.8149 81.4109 51.2079C81.9684 51.5931 82.3783 52.0773 82.6404 52.6607C82.9025 53.2441 83.0365 53.9264 83.0423 54.7076L83.1064 63.3558L80.0363 63.3861L79.9775 55.4645C79.9743 55.027 79.9129 54.6526 79.7934 54.3412C79.6739 54.0221 79.5117 53.7541 79.307 53.5374C79.11 53.3128 78.8782 53.1315 78.6115 52.9935C78.3449 52.8555 78.0668 52.7527 77.7772 52.6853C77.4954 52.6099 77.2059 52.562 76.9089 52.5415C76.6118 52.5132 76.3305 52.5003 76.0649 52.503C75.5649 52.5079 75.0886 52.5478 74.636 52.6226C74.1834 52.6973 73.7545 52.7992 73.3492 52.9282C72.9438 53.0494 72.5621 53.1938 72.2039 53.3615C71.8458 53.5291 71.5111 53.7042 71.2 53.887L71.2711 63.4727L68.2009 63.503L68.1291 53.8236ZM92.6891 49.7371L95.6655 49.7077L95.6801 51.6764L92.7037 51.7058L92.7894 63.2602L90.0004 63.2877L89.9148 51.7333L87.7118 51.7551L87.6972 49.7864L89.9002 49.7646L89.87 45.6866L92.6589 45.6591L92.6891 49.7371ZM103.346 57.7181C103.349 58.1556 103.411 58.5339 103.53 58.8531C103.65 59.1644 103.812 59.4324 104.017 59.6569C104.221 59.8737 104.453 60.0511 104.712 60.1891C104.979 60.3271 105.257 60.4338 105.546 60.509C105.836 60.5765 106.129 60.6244 106.426 60.6527C106.724 60.6732 107.009 60.6821 107.282 60.6794C108.274 60.6696 109.176 60.5318 109.986 60.266C110.797 60.0001 111.517 59.6766 112.147 59.2954L112.076 49.7097L115.101 49.9142L115.203 63.6247C115.207 64.1794 115.093 64.6962 114.863 65.1751C114.632 65.6539 114.295 66.0674 113.852 66.4156C113.41 66.7715 112.865 67.0503 112.218 67.2521C111.571 67.4538 110.833 67.5587 110.005 67.5669L109.99 65.5279C110.303 65.5248 110.591 65.4907 110.856 65.4256C111.122 65.3604 111.351 65.2605 111.546 65.1258C111.748 64.9988 111.903 64.8371 112.011 64.6407C112.127 64.452 112.184 64.2327 112.182 63.9827L112.164 61.5219C111.798 61.752 111.425 61.9628 111.043 62.154C110.67 62.3452 110.276 62.5132 109.863 62.6579C109.45 62.7948 109.017 62.9046 108.565 62.9872C108.112 63.0697 107.636 63.1135 107.136 63.1185C105.925 63.1304 104.889 63.043 104.029 62.8562C103.168 62.6615 102.459 62.3716 101.901 61.9865C101.351 61.5935 100.945 61.1053 100.683 60.5219C100.421 59.9385 100.287 59.2562 100.281 58.475L100.219 50.0612L103.287 49.7965L103.346 57.7181Z" fill="#F00A0A"/>
</svg>
